<?xml version="1.0" standalone="no"?><!DOCTYPE svg PUBLIC "-//W3C//DTD SVG 1.1//EN" "http://www.w3.org/Graphics/SVG/1.1/DTD/svg11.dtd"><svg t="1749371078646" class="icon" viewBox="0 0 1024 1024" version="1.1" xmlns="http://www.w3.org/2000/svg" p-id="10604" data-spm-anchor-id="a313x.search_index.0.i7.41e13a81yso92e" xmlns:xlink="http://www.w3.org/1999/xlink" width="16" height="16"><path d="M456 864a8 8 0 0 1-8-8v-56a8 8 0 0 1 8-8h256V232H136v336a8 8 0 0 1-8 8H72a8 8 0 0 1-8-8V224c0-35.3 28.7-64 64-64h592c35.3 0 64 28.7 64 64v152l128-73.7c21.3-12.3 48 3.1 48 27.7v364.1c0 24.5-26.7 39.9-48 27.6L784 648v152c0 35.3-28.7 64-64 64H456z m432-465l-104 59.9v106.3L888 625V399zM248 296c26.51 0 48 21.49 48 48s-21.49 48-48 48-48-21.49-48-48 21.49-48 48-48z" p-id="10605" fill="#1296db"></path><path d="M315.441 624c-4.41 0-7.986 3.587-7.986 8.01v59.946H71.985c-4.41 0-7.985 3.587-7.985 8.011v48.065c0 4.425 3.575 8.011 7.986 8.011h235.47v59.946c0 1.751 0.572 3.455 1.629 4.85a7.97 7.97 0 0 0 11.19 1.526l120.573-91.989a7.998 7.998 0 0 0 1.522-1.527c2.67-3.521 1.989-8.547-1.522-11.225l-120.573-91.99a7.97 7.97 0 0 0-4.834-1.634z" p-id="10606" fill="#1296db"></path></svg>